<svg width="6" height="10" viewBox="0 0 6 10" fill="none" xmlns="http://www.w3.org/2000/svg">
<path d="M5.17947 3.76851H4.04169V2.82154C4.04169 2.33291 4.08146 2.02514 4.78175 2.02514H5.19273C5.45409 2.02514 5.66622 1.81302 5.66622 1.55166V0.957907C5.66622 0.710275 5.47635 0.498627 5.22919 0.482055C4.9432 0.462642 4.65675 0.453646 4.36981 0.454119C3.08525 0.454119 2.14775 1.23868 2.14775 2.67902V3.76851H1.20078C0.939416 3.76851 0.727295 3.98063 0.727295 4.242V5.18897C0.727295 5.45033 0.939416 5.66245 1.20078 5.66245L2.14775 5.66198V9.45033C2.14775 9.7117 2.35987 9.92382 2.62123 9.92382H3.5682C3.82957 9.92382 4.04169 9.7117 4.04169 9.45033V5.66103L5.07104 5.66056C5.31158 5.66056 5.51375 5.48016 5.54122 5.24105L5.64964 4.29598C5.68231 4.0152 5.46262 3.76851 5.17947 3.76851Z" fill="white"/>
</svg>
