<svg width="12" height="12" viewBox="0 0 12 12" fill="none" xmlns="http://www.w3.org/2000/svg">
<path d="M9.83656 0.545898H2.16384C1.73504 0.547098 1.32414 0.71797 1.02093 1.02118C0.717725 1.32439 0.546854 1.73528 0.545654 2.16408V9.83681C0.546854 10.2656 0.717725 10.6765 1.02093 10.9797C1.32414 11.2829 1.73504 11.4538 2.16384 11.455H9.83656C10.2654 11.4538 10.6763 11.2829 10.9795 10.9797C11.2827 10.6765 11.4535 10.2656 11.4547 9.83681V2.16408C11.4535 1.73528 11.2827 1.32439 10.9795 1.02118C10.6763 0.71797 10.2654 0.547098 9.83656 0.545898ZM10.5457 9.83681C10.5457 10.0249 10.4709 10.2052 10.338 10.3382C10.205 10.4712 10.0246 10.5459 9.83656 10.5459H2.16384C1.97577 10.5459 1.79541 10.4712 1.66243 10.3382C1.52945 10.2052 1.45475 10.0249 1.45475 9.83681V2.16408C1.45475 1.97602 1.52945 1.79566 1.66243 1.66268C1.79541 1.5297 1.97577 1.45499 2.16384 1.45499H9.83656C10.0246 1.45499 10.205 1.5297 10.338 1.66268C10.4709 1.79566 10.5457 1.97602 10.5457 2.16408V9.83681Z" fill="white"/>
<path d="M6.0002 3.27317C5.4608 3.27317 4.93351 3.43312 4.48501 3.7328C4.03651 4.03248 3.68695 4.45842 3.48053 4.95676C3.27411 5.45511 3.2201 6.00347 3.32533 6.53251C3.43056 7.06155 3.69031 7.5475 4.07173 7.92892C4.45314 8.31033 4.9391 8.57008 5.46814 8.67531C5.99717 8.78055 6.54554 8.72654 7.04388 8.52012C7.54223 8.3137 7.96817 7.96413 8.26784 7.51564C8.56752 7.06714 8.72747 6.53985 8.72747 6.00044C8.72747 5.27713 8.44014 4.58343 7.92867 4.07197C7.41721 3.56051 6.72352 3.27317 6.0002 3.27317ZM6.0002 7.81863C5.6406 7.81863 5.28907 7.71199 4.99007 7.51221C4.69107 7.31242 4.45803 7.02846 4.32042 6.69623C4.18281 6.364 4.1468 5.99843 4.21695 5.64573C4.28711 5.29304 4.46027 4.96907 4.71455 4.7148C4.96883 4.46052 5.2928 4.28735 5.64549 4.2172C5.99818 4.14704 6.36376 4.18305 6.69599 4.32066C7.02822 4.45828 7.31218 4.69132 7.51196 4.99032C7.71175 5.28932 7.81838 5.64084 7.81838 6.00044C7.81838 6.48266 7.62682 6.94512 7.28585 7.28609C6.94487 7.62707 6.48241 7.81863 6.0002 7.81863Z" fill="white"/>
<path d="M8.95475 3.72772C9.3313 3.72772 9.63656 3.42246 9.63656 3.0459C9.63656 2.66934 9.3313 2.36408 8.95475 2.36408C8.57819 2.36408 8.27293 2.66934 8.27293 3.0459C8.27293 3.42246 8.57819 3.72772 8.95475 3.72772Z" fill="white"/>
</svg>
