<svg width="12" height="8" viewBox="0 0 12 8" fill="none" xmlns="http://www.w3.org/2000/svg">
<path d="M11.3962 6.78114C10.9507 5.98466 9.80298 5.0276 9.32919 4.61113C9.19952 4.4971 9.18564 4.29983 9.30365 4.17373C10.2079 3.20855 10.9311 2.09953 11.18 1.42939C11.2898 1.13336 11.0625 0.820576 10.7421 0.820576H9.81166C9.50497 0.820576 9.32547 0.929926 9.23993 1.10405C8.48846 2.63372 7.84383 3.29573 7.3926 3.68264C7.13996 3.89937 6.746 3.71983 6.746 3.39006C6.746 2.75464 6.746 1.93329 6.746 1.35083C6.746 1.06834 6.51344 0.839786 6.22658 0.839786L4.52677 0.820576C4.3128 0.820576 4.19057 1.0612 4.319 1.2299L4.59966 1.63011C4.70528 1.76877 4.7623 1.93747 4.7623 2.11061L4.76082 3.91292C4.76082 4.22644 4.37826 4.37963 4.15115 4.15994C3.38282 3.41666 2.71613 1.89881 2.47613 1.17301C2.40671 0.962928 2.20862 0.821068 1.98399 0.820576L1.06739 0.818359C0.72351 0.818359 0.472108 1.14222 0.565578 1.4683C1.40309 4.38849 3.1215 7.16658 6.18394 7.46778C6.48567 7.49733 6.746 7.25598 6.746 6.95723V6.01003C6.746 5.73837 6.96046 5.5049 7.23616 5.498C7.24583 5.49776 7.2555 5.49776 7.26516 5.49776C8.07515 5.49776 8.98233 6.66884 9.29968 7.21657C9.39092 7.37419 9.5615 7.47024 9.74596 7.47024H10.9789C11.3387 7.47024 11.5695 7.09121 11.3962 6.78114Z" fill="white"/>
</svg>
