<svg width="10" height="12" viewBox="0 0 10 12" fill="none" xmlns="http://www.w3.org/2000/svg">
<path d="M2.25027 0.544922L3.00305 3.01455V4.62574H3.63696V2.93531L4.36332 0.544922H3.72941L3.33321 2.16933H3.29359L2.88419 0.544922H2.25027ZM5.16892 1.53541C4.9147 1.53541 4.71165 1.60805 4.56142 1.74672C4.4112 1.88374 4.33691 2.06863 4.33691 2.30139V3.85977C4.33691 4.11564 4.4145 4.33025 4.56142 4.48047C4.70999 4.63235 4.89654 4.70498 5.14251 4.70498C5.39673 4.70498 5.60474 4.6274 5.75001 4.48047C5.89528 4.33355 5.96131 4.1305 5.96131 3.87297V2.3146C5.96131 2.08514 5.88538 1.9052 5.7368 1.75992C5.58988 1.613 5.40169 1.53541 5.16892 1.53541ZM6.43675 1.61465V4.1371C6.43675 4.31704 6.47637 4.44416 6.5424 4.5333C6.60844 4.62244 6.70418 4.66536 6.83295 4.66536C6.93695 4.66536 7.0393 4.63565 7.1499 4.57292C7.26216 4.50854 7.37772 4.41774 7.48007 4.29558V4.62574H8.03474V1.61465H7.48007V3.89938C7.42724 3.96377 7.37111 4.01659 7.30838 4.05786C7.24565 4.10079 7.19117 4.1239 7.1499 4.1239C7.09873 4.1239 7.05416 4.11564 7.03104 4.08428C7.00628 4.05291 7.00463 3.99513 7.00463 3.9258V1.61465H6.43675ZM5.14251 2.06367C5.21679 2.06367 5.28283 2.07688 5.3274 2.1165C5.37362 2.15777 5.39343 2.2106 5.39343 2.27498V3.9258C5.39343 4.00669 5.37197 4.06612 5.3274 4.11069C5.28283 4.15691 5.21845 4.17672 5.14251 4.17672C5.06822 4.17672 5.01044 4.15526 4.97082 4.11069C4.92955 4.06612 4.918 4.00834 4.918 3.9258V2.27498C4.918 2.2106 4.94111 2.15777 4.98403 2.1165C5.02695 2.07688 5.07482 2.06367 5.14251 2.06367ZM5.07648 5.24645C3.98033 5.2448 2.90565 5.25471 1.85408 5.29928C1.11946 5.29928 0.520217 5.89192 0.520217 6.61993C0.475645 7.19607 0.452534 7.77386 0.454184 8.34999C0.452534 8.92613 0.475645 9.50391 0.520217 10.08C0.520217 10.8081 1.11946 11.4007 1.85408 11.4007C2.90565 11.4436 3.98033 11.4552 5.07648 11.4535C6.17427 11.4568 7.24895 11.4436 8.29887 11.4007C9.03349 11.4007 9.63274 10.8081 9.63274 10.08C9.67731 9.50391 9.70042 8.92613 9.69877 8.34999C9.70207 7.77386 9.67731 7.19607 9.63274 6.61993C9.63274 5.89192 9.03349 5.29928 8.29887 5.29928C7.24895 5.25471 6.17427 5.2448 5.07648 5.24645ZM1.16734 6.18412H3.1087C3.14337 6.18412 3.17473 6.21548 3.17473 6.25015V6.84444C3.17473 6.87911 3.14337 6.91048 3.1087 6.91048H2.51441V10.331C2.51441 10.3656 2.49625 10.397 2.46158 10.397H1.82767C1.793 10.397 1.76163 10.3656 1.76163 10.331V6.91048H1.16734C1.13267 6.91048 1.11451 6.87911 1.11451 6.84444V6.25015C1.11451 6.21548 1.13267 6.18412 1.16734 6.18412ZM5.24816 6.18412H5.81604C5.85071 6.18412 5.88207 6.21548 5.88207 6.25015V7.39912C5.9283 7.3562 5.97782 7.32153 6.02735 7.29347C6.12309 7.24064 6.22049 7.21423 6.31789 7.21423C6.51599 7.21423 6.66126 7.29347 6.76691 7.43874C6.86761 7.57906 6.92539 7.77551 6.92539 8.03303V9.71027C6.92539 9.93808 6.87752 10.1147 6.78012 10.2385C6.67942 10.3673 6.5292 10.4366 6.3443 10.4366C6.2271 10.4366 6.12309 10.4053 6.02735 10.3574C5.97617 10.331 5.9283 10.3062 5.88207 10.2649V10.331C5.88207 10.3656 5.85071 10.397 5.81604 10.397H5.24816C5.21349 10.397 5.18213 10.3656 5.18213 10.331V6.25015C5.18213 6.21548 5.21349 6.18412 5.24816 6.18412ZM8.12719 7.17461C8.40122 7.17461 8.62574 7.26045 8.77431 7.42553C8.92288 7.59061 8.99882 7.82503 8.99882 8.12548V8.90467C8.99882 8.93933 8.96745 8.95749 8.93279 8.95749H7.92909V9.47255C7.92909 9.65744 7.9489 9.73008 7.96871 9.76309C7.98522 9.78951 8.01328 9.82912 8.10078 9.82912C8.17176 9.82912 8.22128 9.80931 8.24605 9.7763C8.2576 9.75814 8.28567 9.69211 8.28567 9.47255V9.26124C8.28567 9.22658 8.31703 9.19521 8.3517 9.19521H8.93279C8.96745 9.19521 8.99882 9.22658 8.99882 9.26124V9.48575C8.99882 9.81097 8.91133 10.0586 8.7611 10.2253C8.61088 10.3937 8.38472 10.4762 8.08757 10.4762C7.81849 10.4762 7.60883 10.3921 7.45365 10.2121C7.30013 10.0355 7.21594 9.79116 7.21594 9.48575V8.12548C7.21594 7.84814 7.29683 7.62858 7.46686 7.45195C7.6369 7.27531 7.85976 7.17461 8.12719 7.17461ZM3.1087 7.25385H3.66338C3.69804 7.25385 3.72941 7.28521 3.72941 7.31988V9.63103C3.72941 9.70696 3.73436 9.73833 3.74261 9.74989C3.74592 9.75484 3.76077 9.7763 3.80865 9.7763C3.82516 9.7763 3.86147 9.7697 3.92751 9.72347C3.98198 9.68715 4.02986 9.64258 4.07278 9.59141V7.31988C4.07278 7.28521 4.10414 7.25385 4.13881 7.25385H4.70669C4.74136 7.25385 4.75952 7.28521 4.75952 7.31988V10.331C4.75952 10.3656 4.74136 10.397 4.70669 10.397H4.13881C4.10414 10.397 4.07278 10.3656 4.07278 10.331V10.1593C3.99849 10.2319 3.92586 10.2864 3.84827 10.331C3.72611 10.4003 3.61055 10.4366 3.49169 10.4366C3.34147 10.4366 3.22591 10.3855 3.14832 10.2781C3.07403 10.1774 3.04267 10.0338 3.04267 9.84233V7.31988C3.04267 7.28521 3.07403 7.25385 3.1087 7.25385ZM6.02735 7.82173C6.00589 7.82503 5.98443 7.83659 5.96131 7.84814C5.9349 7.86135 5.90849 7.88611 5.88207 7.91418V9.73668C5.91509 9.77135 5.94316 9.80106 5.97452 9.81592C6.00919 9.83243 6.0422 9.84233 6.08017 9.84233C6.15116 9.84233 6.17922 9.81262 6.18583 9.80271C6.20233 9.78125 6.21224 9.73173 6.21224 9.63103V8.07265C6.21224 7.98681 6.20398 7.91583 6.17262 7.87456C6.14125 7.83329 6.09173 7.81017 6.02735 7.82173ZM8.11398 7.83494C8.0463 7.83494 7.99677 7.84979 7.96871 7.88776C7.9489 7.91583 7.92909 7.98516 7.92909 8.12548V8.3632H8.28567V8.12548C8.28567 7.98681 8.26751 7.91913 8.24605 7.88776C8.21963 7.85144 8.17836 7.83494 8.11398 7.83494Z" fill="white"/>
</svg>
